<?xml version="1.0" encoding="UTF-8"?>
<svg width="667px" height="200px" viewBox="0 0 667 200" version="1.1" xmlns="http://www.w3.org/2000/svg" xmlns:xlink="http://www.w3.org/1999/xlink">
    <!-- Generator: Sketch 52.2 (67145) - http://www.bohemiancoding.com/sketch -->
    <title>Goodies</title>
    <desc>Created with Sketch.</desc>
    <g id="Goodies" stroke="none" stroke-width="1" fill="none" fill-rule="evenodd">
        <g id="Group-2" transform="translate(18.000000, 12.000000)" fill="#FFFFFF">
            <g id="Group" transform="translate(0.251908, 0.251908)">
                <path d="M163.427329,132.307778 C148.15346,158.15717 119.995613,175.496183 87.7862595,175.496183 C39.3032472,175.496183 -2.84217094e-14,136.210024 -2.84217094e-14,87.7480916 C-2.84217094e-14,39.2861588 39.3032472,0 87.7862595,0 C119.995613,0 148.15346,17.3390132 163.427329,43.1884055 C165.544409,46.087959 166.793893,49.6612311 166.793893,53.5263359 C166.793893,63.2187224 158.936661,71.0759542 149.244275,71.0759542 L149.229008,71.0759542 C142.182078,71.0759542 136.105237,66.9225144 133.312966,60.930117 L133.166232,61.0043801 C124.000843,45.499112 107.10859,35.0992366 87.7862595,35.0992366 C58.6964521,35.0992366 35.1145038,58.6709319 35.1145038,87.7480916 C35.1145038,116.825251 58.6964521,140.396947 87.7862595,140.396947 C107.10859,140.396947 124.000843,129.997071 133.166232,114.491803 L133.312966,114.566066 C136.105237,108.573669 142.182078,104.420229 149.229008,104.420229 L149.244275,104.420229 C158.936661,104.420229 166.793893,112.277461 166.793893,121.969847 C166.793893,125.834952 165.544409,129.408224 163.427331,132.307774 Z" id="Combined-Shape"></path>
                <path d="M69.2270386,54.3728729 L69.2517109,54.3728729 C77.430425,54.3728729 84.0605827,61.0030307 84.0605827,69.1817448 L84.0605827,69.1817448 C84.0605827,77.3604589 77.430425,83.9906166 69.2517109,83.9906166 L69.2270386,83.9906166 C61.0483245,83.9906166 54.4181667,77.3604589 54.4181667,69.1817448 L54.4181667,69.1817448 C54.4181667,61.0030307 61.0483245,54.3728729 69.2270386,54.3728729 Z" id="Combined-Shape"></path>
                <path d="M105.948241,54.3728729 L105.972913,54.3728729 C114.151627,54.3728729 120.781785,61.0030307 120.781785,69.1817448 L120.781785,69.1817448 C120.781785,77.3604589 114.151627,83.9906166 105.972913,83.9906166 L105.948241,83.9906166 C97.7695264,83.9906166 91.1393687,77.3604589 91.1393687,69.1817448 L91.1393687,69.1817448 C91.1393687,61.0030307 97.7695264,54.3728729 105.948241,54.3728729 Z" id="Rectangle-3"></path>
                <path d="M69.2270386,91.5055666 L69.2517109,91.5055666 C77.430425,91.5055666 84.0605827,98.1357243 84.0605827,106.314438 L84.0605827,106.314438 C84.0605827,114.493153 77.430425,121.12331 69.2517109,121.12331 L69.2270386,121.12331 C61.0483245,121.12331 54.4181667,114.493153 54.4181667,106.314438 L54.4181667,106.314438 C54.4181667,98.1357243 61.0483245,91.5055666 69.2270386,91.5055666 Z" id="Rectangle-3"></path>
                <path d="M105.948241,91.5055666 L105.972913,91.5055666 C114.151627,91.5055666 120.781785,98.1357243 120.781785,106.314438 L120.781785,106.314438 C120.781785,114.493153 114.151627,121.12331 105.972913,121.12331 L105.948241,121.12331 C97.7695264,121.12331 91.1393687,114.493153 91.1393687,106.314438 L91.1393687,106.314438 C91.1393687,98.1357243 97.7695264,91.5055666 105.948241,91.5055666 Z" id="Rectangle-3"></path>
            </g>
        </g>
        <path d="M291.117831,109.398611 C287.310248,114.454167 281.725791,118.625 273.856785,118.625 C262.434033,118.625 254.057349,110.6625 254.057349,99.0347222 C254.057349,87.7861111 262.307114,79.4444444 273.095268,79.4444444 C280.710436,79.4444444 286.294892,83.8680556 289.594798,88.4180556 L298.47916,80.9611111 C292.894704,73.2513889 283.502664,68.0694444 273.095268,68.0694444 C255.199624,68.0694444 242,81.4666667 242,99.0347222 C242,116.602778 255.453463,130 273.856785,130 C284.771858,130 295.433093,124.3125 300.382952,116.097222 L291.117831,109.398611 Z M312.440301,99.0347222 C312.440301,81.3402778 325.639925,68.0694444 343.28173,68.0694444 C360.923535,68.0694444 374.123159,81.3402778 374.123159,99.0347222 C374.123159,116.729167 360.923535,130 343.28173,130 C325.639925,130 312.440301,116.729167 312.440301,99.0347222 Z M324.49765,99.0347222 C324.49765,109.904167 332.239737,118.625 343.28173,118.625 C354.323723,118.625 362.06581,109.904167 362.06581,99.0347222 C362.06581,88.1652778 354.323723,79.4444444 343.28173,79.4444444 C332.239737,79.4444444 324.49765,88.1652778 324.49765,99.0347222 Z M393.795675,128.736111 L405.853024,128.736111 L405.853024,39 L393.795675,39 L393.795675,128.736111 Z M430.602319,128.736111 L442.659668,128.736111 L442.659668,39 L430.602319,39 L430.602319,128.736111 Z M519.95362,101.5625 L474.008775,101.5625 C474.643372,111.547222 482.893137,119.509722 493.300533,119.509722 C502.184895,119.509722 507.007835,115.2125 510.43466,111.420833 L518.303667,118.877778 C513.861485,124.565278 505.357882,130 493.173613,130 C475.785647,130 462.332184,116.855556 462.332184,99.0347222 C462.332184,81.2138889 474.516453,68.0694444 491.396741,68.0694444 C508.02319,68.0694444 520.080539,81.4666667 520.080539,99.0347222 C520.080539,99.5402778 520.080539,100.425 519.95362,101.5625 Z M491.777499,78.5597222 C484.035412,78.5597222 477.054842,83.7416667 475.02413,91.4513889 L507.515512,91.4513889 C505.73864,83.8680556 498.884989,78.5597222 491.777499,78.5597222 Z M583.794108,109.398611 C579.986525,114.454167 574.402068,118.625 566.533062,118.625 C555.11031,118.625 546.733626,110.6625 546.733626,99.0347222 C546.733626,87.7861111 554.983391,79.4444444 565.771545,79.4444444 C573.386713,79.4444444 578.971169,83.8680556 582.271075,88.4180556 L591.155437,80.9611111 C585.570981,73.2513889 576.178941,68.0694444 565.771545,68.0694444 C547.875901,68.0694444 534.676277,81.4666667 534.676277,99.0347222 C534.676277,116.602778 548.12974,130 566.533062,130 C577.448135,130 588.10937,124.3125 593.059229,116.097222 L583.794108,109.398611 Z M644.58853,117.866667 C642.811658,118.372222 639.765591,118.625 637.988718,118.625 C634.815732,118.625 631.388906,117.4875 629.738953,115.465278 C628.21592,113.695833 627.962081,111.041667 627.962081,107.881944 L627.962081,80.0763889 L647,80.0763889 L647,69.3333333 L627.962081,69.3333333 L627.962081,52.9027778 L615.904732,52.9027778 L615.904732,69.3333333 L600.674397,69.3333333 L600.674397,80.0763889 L615.904732,80.0763889 L615.904732,107.25 C615.904732,113.695833 617.173927,119.130556 620.727672,123.048611 C624.535255,127.345833 630.119712,130 637.60796,130 C641.034785,130 644.71545,129.494444 647,128.736111 L644.58853,117.866667 Z" id="collect" fill="#FFFFFF"></path>
    </g>
</svg>